<?xml version="1.0" encoding="UTF-8"?>
<!-- Created with Inkscape (http://www.inkscape.org/) -->
<svg width="210mm" height="297mm" version="1.1" viewBox="0 0 210 297" xmlns="http://www.w3.org/2000/svg">
 <defs>
  <linearGradient id="linearGradient143" x1="-148.42" x2="-30.04" y1="976.38" y2="976.38" gradientTransform="matrix(.75 0 0 .75 26.439 -285.94)" gradientUnits="userSpaceOnUse">
   <stop stop-color="#515da7" offset="0"/>
   <stop stop-color="#515da7" offset=".2473"/>
   <stop stop-color="#636cb1" offset=".408"/>
   <stop stop-color="#9395ca" offset=".7379"/>
   <stop stop-color="#bcbcdf" offset="1"/>
  </linearGradient>
  <linearGradient id="linearGradient148" x1="-148.42" x2="17.71" y1="944.02" y2="944.02" gradientTransform="matrix(.75 0 0 .75 26.439 -285.94)" gradientUnits="userSpaceOnUse">
   <stop stop-color="#c1bee0" offset="0"/>
   <stop stop-color="#c5c2e3" offset=".276"/>
   <stop stop-color="#d1cfe9" offset=".6014"/>
   <stop stop-color="#e6e5f4" offset=".9504"/>
   <stop stop-color="#e9e8f5" offset="1"/>
  </linearGradient>
  <clipPath id="clipPath149">
   <path transform="translate(2.5e-5)" d="m0 0h787v1021h-787z"/>
  </clipPath>
  <linearGradient id="linearGradient157" x1="7496.9" x2="7758.7" y1="1070.3" y2="1070.3" gradientTransform="matrix(-.75 0 0 .75 5873.5 -285.94)" gradientUnits="userSpaceOnUse">
   <stop stop-color="#515da7" offset="0"/>
   <stop stop-color="#5561a9" offset=".1601"/>
   <stop stop-color="#626bb0" offset=".3488"/>
   <stop stop-color="#777cbb" offset=".552"/>
   <stop stop-color="#9496ca" offset=".7655"/>
   <stop stop-color="#b9b9de" offset=".9849"/>
   <stop stop-color="#bcbcdf" offset="1"/>
  </linearGradient>
  <linearGradient id="linearGradient162" x1="7584.9" x2="7846.8" y1="1061.6" y2="1061.6" gradientTransform="matrix(-.75 0 0 .75 5873.5 -285.94)" gradientUnits="userSpaceOnUse">
   <stop stop-color="#c1bee0" offset="0"/>
   <stop stop-color="#c5c2e3" offset=".276"/>
   <stop stop-color="#d1cfe9" offset=".6014"/>
   <stop stop-color="#e6e5f4" offset=".9504"/>
   <stop stop-color="#e9e8f5" offset="1"/>
  </linearGradient>
  <linearGradient id="linearGradient178" x1="7567.9" x2="7635" y1="1041.5" y2="1041.5" gradientTransform="matrix(-.75 0 0 .75 5873.5 -285.94)" gradientUnits="userSpaceOnUse">
   <stop stop-color="#c1bee0" offset="0"/>
   <stop stop-color="#c5c2e3" offset=".276"/>
   <stop stop-color="#d1cfe9" offset=".6014"/>
   <stop stop-color="#e6e5f4" offset=".9504"/>
   <stop stop-color="#e9e8f5" offset="1"/>
  </linearGradient>
  <linearGradient id="linearGradient189" x1="9.1936" x2="9.1936" y1="1184.4" y2="1082.3" gradientTransform="matrix(.75 0 0 .75 26.439 -285.94)" gradientUnits="userSpaceOnUse">
   <stop stop-color="#c1bee0" offset="0"/>
   <stop stop-color="#c5c2e3" offset=".276"/>
   <stop stop-color="#d1cfe9" offset=".6014"/>
   <stop stop-color="#e6e5f4" offset=".9504"/>
   <stop stop-color="#e9e8f5" offset="1"/>
  </linearGradient>
  <clipPath id="clipPath193">
   <path transform="translate(2.5e-5)" d="m0 0h787v1021h-787z"/>
  </clipPath>
  <linearGradient id="linearGradient201" x1="-214.91" x2="83.892" y1="994.75" y2="994.75" gradientTransform="matrix(.75 0 0 .75 26.439 -285.94)" gradientUnits="userSpaceOnUse">
   <stop stop-color="#6dc4cb" offset="0"/>
   <stop stop-color="#6bc2cb" offset=".1333"/>
   <stop stop-color="#67b9ca" offset=".2906"/>
   <stop stop-color="#61acc7" offset=".4599"/>
   <stop stop-color="#5a98c1" offset=".6377"/>
   <stop stop-color="#547db7" offset=".8203"/>
   <stop stop-color="#515da7" offset="1"/>
  </linearGradient>
  <linearGradient id="linearGradient207" x1="9.1936" x2="9.1936" y1="1099.7" y2="997.62" gradientTransform="matrix(.75 0 0 .75 26.439 -285.94)" gradientUnits="userSpaceOnUse">
   <stop stop-color="#c1bee0" offset="0"/>
   <stop stop-color="#c5c2e3" offset=".276"/>
   <stop stop-color="#d1cfe9" offset=".6014"/>
   <stop stop-color="#e6e5f4" offset=".9504"/>
   <stop stop-color="#e9e8f5" offset="1"/>
  </linearGradient>
  <linearGradient id="linearGradient215" x1="-3.6804" x2="5.8076" y1="989.18" y2="989.18" gradientTransform="matrix(.75 0 0 .75 26.439 -285.94)" gradientUnits="userSpaceOnUse">
   <stop stop-color="#6dc4cb" offset="0"/>
   <stop stop-color="#6bc2cb" offset=".1333"/>
   <stop stop-color="#67b9ca" offset=".2906"/>
   <stop stop-color="#61acc7" offset=".4599"/>
   <stop stop-color="#5a98c1" offset=".6377"/>
   <stop stop-color="#547db7" offset=".8203"/>
   <stop stop-color="#515da7" offset="1"/>
  </linearGradient>
  <linearGradient id="linearGradient222" x1="5.8076" x2="15.296" y1="994.66" y2="994.66" gradientTransform="matrix(.75 0 0 .75 26.439 -285.94)" gradientUnits="userSpaceOnUse">
   <stop stop-color="#6dc4cb" offset="0"/>
   <stop stop-color="#6bc2cb" offset=".1333"/>
   <stop stop-color="#67b9ca" offset=".2906"/>
   <stop stop-color="#61acc7" offset=".4599"/>
   <stop stop-color="#5a98c1" offset=".6377"/>
   <stop stop-color="#547db7" offset=".8203"/>
   <stop stop-color="#515da7" offset="1"/>
  </linearGradient>
  <clipPath id="clipPath222">
   <path transform="translate(2.5e-5)" d="m0 0h787v1021h-787z"/>
  </clipPath>
  <linearGradient id="linearGradient229" x1="-3.7188" x2="5.7692" y1="1000.2" y2="1000.2" gradientTransform="matrix(.75 0 0 .75 26.439 -285.94)" gradientUnits="userSpaceOnUse">
   <stop stop-color="#6dc4cb" offset="0"/>
   <stop stop-color="#6bc2cb" offset=".1333"/>
   <stop stop-color="#67b9ca" offset=".2906"/>
   <stop stop-color="#61acc7" offset=".4599"/>
   <stop stop-color="#5a98c1" offset=".6377"/>
   <stop stop-color="#547db7" offset=".8203"/>
   <stop stop-color="#515da7" offset="1"/>
  </linearGradient>
  <linearGradient id="linearGradient236" x1="2247.4" x2="2436" y1="1150.7" y2="1150.7" gradientTransform="matrix(.75 0 0 .75 -1682.6 -285.94)" gradientUnits="userSpaceOnUse">
   <stop stop-color="#c1bee0" offset="0"/>
   <stop stop-color="#c5c2e3" offset=".276"/>
   <stop stop-color="#d1cfe9" offset=".6014"/>
   <stop stop-color="#e6e5f4" offset=".9504"/>
   <stop stop-color="#e9e8f5" offset="1"/>
  </linearGradient>
  <linearGradient id="linearGradient243" x1="2247.4" x2="2279.8" y1="1199.1" y2="1199.1" gradientTransform="matrix(.75 0 0 .75 -1682.6 -285.94)" gradientUnits="userSpaceOnUse">
   <stop stop-color="#515da7" offset="0"/>
   <stop stop-color="#5561a9" offset=".1601"/>
   <stop stop-color="#626bb0" offset=".3488"/>
   <stop stop-color="#777cbb" offset=".552"/>
   <stop stop-color="#9496ca" offset=".7655"/>
   <stop stop-color="#b9b9de" offset=".9849"/>
   <stop stop-color="#bcbcdf" offset="1"/>
  </linearGradient>
  <clipPath id="clipPath245">
   <path transform="translate(2.5e-5)" d="m0 0h787v1021h-787z"/>
  </clipPath>
  <linearGradient id="linearGradient252" x1="2272.7" x2="2539.1" y1="1253.5" y2="1253.5" gradientTransform="matrix(.75 0 0 .75 -1682.6 -285.94)" gradientUnits="userSpaceOnUse">
   <stop stop-color="#515da7" offset="0"/>
   <stop stop-color="#5561a9" offset=".1601"/>
   <stop stop-color="#626bb0" offset=".3488"/>
   <stop stop-color="#777cbb" offset=".552"/>
   <stop stop-color="#9496ca" offset=".7655"/>
   <stop stop-color="#b9b9de" offset=".9849"/>
   <stop stop-color="#bcbcdf" offset="1"/>
  </linearGradient>
  <linearGradient id="linearGradient257" x1="2362.2" x2="2628.7" y1="1244.6" y2="1244.6" gradientTransform="matrix(.75 0 0 .75 -1682.6 -285.94)" gradientUnits="userSpaceOnUse">
   <stop stop-color="#c1bee0" offset="0"/>
   <stop stop-color="#c5c2e3" offset=".276"/>
   <stop stop-color="#d1cfe9" offset=".6014"/>
   <stop stop-color="#e6e5f4" offset=".9504"/>
   <stop stop-color="#e9e8f5" offset="1"/>
  </linearGradient>
  <linearGradient id="linearGradient273" x1="2407.3" x2="2475.6" y1="1259.7" y2="1259.7" gradientTransform="matrix(.75 0 0 .75 -1682.6 -285.94)" gradientUnits="userSpaceOnUse">
   <stop stop-color="#c1bee0" offset="0"/>
   <stop stop-color="#c5c2e3" offset=".276"/>
   <stop stop-color="#d1cfe9" offset=".6014"/>
   <stop stop-color="#e6e5f4" offset=".9504"/>
   <stop stop-color="#e9e8f5" offset="1"/>
  </linearGradient>
  <clipPath id="clipPath292">
   <path transform="matrix(1.3333 0 0 1.3333 5344.1 0)" d="m141.93 586.82-14.563-86.347-118.04 68.152 14.633 86.301z"/>
  </clipPath>
  <linearGradient id="linearGradient278" x1="2260.3" x2="2526.9" y1="1185.5" y2="1185.5" gradientTransform="matrix(.75 0 0 .75 -1682.6 -285.94)" gradientUnits="userSpaceOnUse">
   <stop stop-color="#c1bee0" offset="0"/>
   <stop stop-color="#c5c2e3" offset=".276"/>
   <stop stop-color="#d1cfe9" offset=".6014"/>
   <stop stop-color="#e6e5f4" offset=".9504"/>
   <stop stop-color="#e9e8f5" offset="1"/>
  </linearGradient>
  <clipPath id="clipPath278">
   <path transform="translate(2.5e-5)" d="m0 0h787v1021h-787z"/>
  </clipPath>
  <linearGradient id="linearGradient283" x1="2242.8" x2="2311" y1="1166" y2="1166" gradientTransform="matrix(.75 0 0 .75 -1682.6 -285.94)" gradientUnits="userSpaceOnUse">
   <stop stop-color="#c1bee0" offset="0"/>
   <stop stop-color="#c5c2e3" offset=".276"/>
   <stop stop-color="#d1cfe9" offset=".6014"/>
   <stop stop-color="#e6e5f4" offset=".9504"/>
   <stop stop-color="#e9e8f5" offset="1"/>
  </linearGradient>
  <clipPath id="clipPath283">
   <path transform="translate(2.5e-5)" d="m0 0h787v1021h-787z"/>
  </clipPath>
  <clipPath id="clipPath284">
   <path transform="translate(2.5e-5)" d="m0 0h787v1021h-787z"/>
  </clipPath>
  <clipPath id="clipPath285">
   <path transform="translate(2.5e-5)" d="m0 0h787v1021h-787z"/>
  </clipPath>
  <clipPath id="clipPath286">
   <path transform="translate(2.5e-5)" d="m0 0h787v1021h-787z"/>
  </clipPath>
  <clipPath id="clipPath287">
   <path transform="translate(2.5e-5)" d="m0 0h787v1021h-787z"/>
  </clipPath>
  <clipPath id="clipPath288">
   <path transform="translate(2.5e-5)" d="m0 0h787v1021h-787z"/>
  </clipPath>
  <clipPath id="clipPath289">
   <path transform="translate(2.5e-5)" d="m0 0h787v1021h-787z"/>
  </clipPath>
  <clipPath id="clipPath290">
   <path transform="translate(2.5e-5)" d="m0 0h787v1021h-787z"/>
  </clipPath>
  <clipPath id="clipPath291">
   <path transform="translate(2.5e-5)" d="m0 0h787v1021h-787z"/>
  </clipPath>
  <linearGradient id="linearGradient308" x1="173.28" x2="291.66" y1="1153.4" y2="1153.4" gradientTransform="matrix(.75 0 0 .75 26.439 -285.94)" gradientUnits="userSpaceOnUse">
   <stop stop-color="#515da7" offset="0"/>
   <stop stop-color="#515da7" offset=".2473"/>
   <stop stop-color="#636cb1" offset=".408"/>
   <stop stop-color="#9395ca" offset=".7379"/>
   <stop stop-color="#bcbcdf" offset="1"/>
  </linearGradient>
  <linearGradient id="linearGradient313" x1="173.28" x2="339.41" y1="1121" y2="1121" gradientTransform="matrix(.75 0 0 .75 26.439 -285.94)" gradientUnits="userSpaceOnUse">
   <stop stop-color="#c1bee0" offset="0"/>
   <stop stop-color="#c5c2e3" offset=".276"/>
   <stop stop-color="#d1cfe9" offset=".6014"/>
   <stop stop-color="#e6e5f4" offset=".9504"/>
   <stop stop-color="#e9e8f5" offset="1"/>
  </linearGradient>
  <clipPath id="clipPath314">
   <path transform="translate(2.5e-5)" d="m0 0h787v1021h-787z"/>
  </clipPath>
  <linearGradient id="linearGradient322" x1="204.99" x2="307.69" y1="1121" y2="1121" gradientTransform="matrix(.75 0 0 .75 26.439 -285.94)" gradientUnits="userSpaceOnUse">
   <stop stop-color="#6dc4cb" offset="0"/>
   <stop stop-color="#6bc2cb" offset=".1333"/>
   <stop stop-color="#67b9ca" offset=".2906"/>
   <stop stop-color="#61acc7" offset=".4599"/>
   <stop stop-color="#5a98c1" offset=".6377"/>
   <stop stop-color="#547db7" offset=".8203"/>
   <stop stop-color="#515da7" offset="1"/>
  </linearGradient>
  <linearGradient id="linearGradient329" x1="256.34" x2="307.69" y1="1085.4" y2="1085.4" gradientTransform="matrix(.75 0 0 .75 26.439 -285.94)" gradientUnits="userSpaceOnUse">
   <stop stop-color="#6dc4cb" offset="0"/>
   <stop stop-color="#6bc2cb" offset=".1333"/>
   <stop stop-color="#67b9ca" offset=".2906"/>
   <stop stop-color="#61acc7" offset=".4599"/>
   <stop stop-color="#5a98c1" offset=".6377"/>
   <stop stop-color="#547db7" offset=".8203"/>
   <stop stop-color="#515da7" offset="1"/>
  </linearGradient>
  <linearGradient id="linearGradient336" x1="204.99" x2="256.34" y1="1085.4" y2="1085.4" gradientTransform="matrix(.75 0 0 .75 26.439 -285.94)" gradientUnits="userSpaceOnUse">
   <stop stop-color="#6dc4cb" offset="0"/>
   <stop stop-color="#6bc2cb" offset=".1333"/>
   <stop stop-color="#67b9ca" offset=".2906"/>
   <stop stop-color="#61acc7" offset=".4599"/>
   <stop stop-color="#5a98c1" offset=".6377"/>
   <stop stop-color="#547db7" offset=".8203"/>
   <stop stop-color="#515da7" offset="1"/>
  </linearGradient>
  <linearGradient id="linearGradient343" x1="204.99" x2="307.69" y1="1079.5" y2="1079.5" gradientTransform="matrix(.75 0 0 .75 26.439 -285.94)" gradientUnits="userSpaceOnUse">
   <stop stop-color="#6dc4cb" offset="0"/>
   <stop stop-color="#6bc2cb" offset=".1333"/>
   <stop stop-color="#67b9ca" offset=".2906"/>
   <stop stop-color="#61acc7" offset=".4599"/>
   <stop stop-color="#5a98c1" offset=".6377"/>
   <stop stop-color="#547db7" offset=".8203"/>
   <stop stop-color="#515da7" offset="1"/>
  </linearGradient>
  <linearGradient id="linearGradient350" x1="256.34" x2="307.69" y1="1115.1" y2="1115.1" gradientTransform="matrix(.75 0 0 .75 26.439 -285.94)" gradientUnits="userSpaceOnUse">
   <stop stop-color="#6dc4cb" offset="0"/>
   <stop stop-color="#6bc2cb" offset=".1333"/>
   <stop stop-color="#67b9ca" offset=".2906"/>
   <stop stop-color="#61acc7" offset=".4599"/>
   <stop stop-color="#5a98c1" offset=".6377"/>
   <stop stop-color="#547db7" offset=".8203"/>
   <stop stop-color="#515da7" offset="1"/>
  </linearGradient>
  <linearGradient id="linearGradient357" x1="204.99" x2="256.34" y1="1115.1" y2="1115.1" gradientTransform="matrix(.75 0 0 .75 26.439 -285.94)" gradientUnits="userSpaceOnUse">
   <stop stop-color="#6dc4cb" offset="0"/>
   <stop stop-color="#6bc2cb" offset=".1333"/>
   <stop stop-color="#67b9ca" offset=".2906"/>
   <stop stop-color="#61acc7" offset=".4599"/>
   <stop stop-color="#5a98c1" offset=".6377"/>
   <stop stop-color="#547db7" offset=".8203"/>
   <stop stop-color="#515da7" offset="1"/>
  </linearGradient>
  <linearGradient id="linearGradient361" x1="-76.706" x2="-70.338" y1="991.95" y2="733.43" gradientTransform="matrix(.75 0 0 .75 26.439 -285.94)" gradientUnits="userSpaceOnUse">
   <stop stop-color="#1579a0" offset="0"/>
   <stop stop-color="#1579a0" offset=".0335"/>
   <stop stop-color="#fff" offset="1"/>
  </linearGradient>
 </defs>
 <g transform="matrix(.26458 0 0 .26458 -1329.6 -23.772)">
  <g fill="#fff">
   <path transform="matrix(1.3333 0 0 1.3333 4275.3 0)" d="m765.81 636.77c-1.512 0.968-2.348 2.609-2.34 4.289-3.672 1.644-7.664 2.527-11.742 2.574-16.36 0.199-29.829-12.945-30.024-29.305-0.195-16.355 12.945-29.828 29.301-30.023 4.074-0.051 8.094 0.738 11.805 2.289 0.039 1.68 0.91 3.308 2.445 4.23 2.387 1.434 5.5 0.66 6.93-1.726 1.433-2.383 0.66-5.496-1.723-6.93-1.758-1.055-3.91-0.914-5.492 0.188-4.403-1.899-9.172-2.848-14.016-2.79-18.969 0.235-34.215 15.856-33.984 34.829 0.234 18.968 15.855 34.218 34.832 33.984 4.844-0.059 9.59-1.133 13.949-3.137 1.613 1.067 3.766 1.157 5.496 0.055 2.348-1.492 3.047-4.621 1.555-6.969-1.508-2.355-4.637-3.051-6.992-1.558zm-1.266-52.27c0.426-0.711 1.051-1.234 1.754-1.535 1.109-0.488 2.43-0.449 3.547 0.215 1.832 1.097 2.422 3.48 1.32 5.304-1.094 1.829-3.48 2.422-5.301 1.321-1.004-0.602-1.636-1.59-1.816-2.664-0.149-0.875 0-1.813 0.496-2.641zm6.051 59.793c-1.102 0.695-2.422 0.77-3.547 0.305-0.711-0.293-1.348-0.801-1.793-1.5-0.516-0.809-0.688-1.746-0.555-2.633 0.16-1.07 0.758-2.074 1.75-2.707 1.797-1.141 4.192-0.606 5.332 1.195 1.145 1.805 0.614 4.199-1.187 5.34z"/>
   <path transform="matrix(1.3333 0 0 1.3333 4275.3 0)" d="m751.75 596.85c-9.449 0.109-17.008 7.867-16.894 17.316 0.109 9.449 7.867 17.008 17.316 16.898 9.449-0.113 17.008-7.867 16.898-17.32-0.113-9.441-7.867-17.008-17.32-16.894zm0.356 28.32c-6.196 0.074-11.274-4.883-11.348-11.078-0.078-6.196 4.883-11.274 11.074-11.348 6.195-0.074 11.274 4.883 11.348 11.078 0.07 6.192-4.887 11.27-11.074 11.348z"/>
   <path transform="matrix(1.3333 0 0 1.3333 4275.3 0)" d="m751.09 626.81c-1.606 0.915-2.528 2.567-2.602 4.29-3.847 1.515-7.988 2.234-12.172 2.093-16.793-0.562-29.992-14.679-29.437-31.468 0.555-16.793 14.676-29.993 31.469-29.438 4.187 0.141 8.265 1.133 12 2.895-0.036 1.722 0.773 3.433 2.312 4.453 2.383 1.582 5.609 0.937 7.191-1.446 1.583-2.386 0.938-5.613-1.441-7.195-1.754-1.168-3.965-1.125-5.648-0.066-4.422-2.153-9.278-3.352-14.254-3.516-19.481-0.652-35.852 14.668-36.496 34.137-0.645 19.472 14.668 35.851 34.14 36.496 4.981 0.164 9.899-0.711 14.457-2.563 1.606 1.161 3.813 1.356 5.641 0.305 2.484-1.418 3.348-4.598 1.922-7.078-1.418-2.461-4.598-3.324-7.082-1.899zm1.14-53.683c0.473-0.707 1.133-1.215 1.875-1.5 1.164-0.453 2.52-0.356 3.629 0.387 1.824 1.218 2.321 3.683 1.114 5.507-1.215 1.821-3.684 2.317-5.508 1.11-0.996-0.668-1.598-1.711-1.739-2.813-0.113-0.914 0.083-1.867 0.629-2.691zm3.414 61.625c-1.164 0.668-2.519 0.676-3.652 0.152-0.723-0.332-1.344-0.886-1.769-1.621-0.489-0.855-0.633-1.824-0.454-2.723 0.211-1.093 0.879-2.101 1.922-2.691 1.899-1.09 4.328-0.43 5.414 1.469 1.094 1.898 0.442 4.328-1.461 5.414z"/>
   <path transform="matrix(1.3333 0 0 1.3333 4275.3 0)" d="m738.53 585.2c-9.695-0.324-17.82 7.274-18.148 16.973-0.332 9.695 7.273 17.82 16.972 18.148 9.696 0.324 17.821-7.273 18.149-16.972 0.332-9.696-7.274-17.829-16.973-18.149zm-0.965 29.07c-6.363-0.211-11.339-5.535-11.132-11.894 0.211-6.363 5.535-11.34 11.894-11.133 6.363 0.211 11.344 5.535 11.133 11.895-0.211 6.363-5.535 11.347-11.895 11.132z"/>
  </g>
  <path transform="matrix(1.3333 0 0 1.3333 5344.1 0)" d="m-22.574 488.03-67.403-38.918 67.403-38.918 67.402 38.918zm-65.496-38.918 65.496 37.813 65.492-37.813-65.5-37.816z" fill="#7d81bd"/>
  <path transform="matrix(1.3333 0 0 1.3333 5344.1 0)" d="m-84.875 422.07v12.571l62.301 35.968 62.297-35.968v-12.571l-62.297 34.371z" fill="url(#linearGradient143)"/>
  <path transform="matrix(1.3333 0 0 1.3333 5344.1 0)" d="m39.723 422.07-62.297 35.961-62.301-35.961 62.293-35.968z" fill="url(#linearGradient148)"/>
  <g opacity=".5">
   <path transform="matrix(1.3333 0 0 1.3333 5344.1 0)" d="m-22.574 458.03 62.297-35.961-0.903-0.515-61.394 35.441-61.403-35.441-0.898 0.515z" clip-path="url(#clipPath149)" fill="#fff"/>
  </g>
  <path transform="matrix(1.3333 0 0 1.3333 5344.1 0)" d="m176.06 583.34c-1.91 0-3.785-0.504-5.43-1.449l-108.08-62.399c-0.981-0.57-1.574-1.582-1.574-2.723 0-1.132 0.586-2.152 1.574-2.722l67.68-39.074c0.195-0.114 0.437-0.114 0.632 0l113.2 65.355c0.984 0.57 1.574 1.59 1.574 2.723 0 1.129-0.582 2.152-1.566 2.722l-62.567 36.118c-1.64 0.953-3.523 1.449-5.437 1.449zm-4.797-2.535c2.91 1.679 6.703 1.679 9.605 0l62.567-36.121c0.593-0.344 0.945-0.954 0.945-1.633 0-0.684-0.352-1.293-0.945-1.637l-112.88-65.176-0.211 0.121-67.156 38.774c-0.59 0.347-0.942 0.953-0.942 1.636 0 0.684 0.352 1.289 0.942 1.633z" fill="#6dc4cb"/>
  <path transform="matrix(1.3333 0 0 1.3333 5344.1 0)" d="m54.438 496.5 6.57 3.43 65.847-38.02c1.106-0.637 3.024-0.555 4.297 0.18l113.58 65.574c1.086-0.609 6.043-2.992 6.043-2.992l-2.406 6.262-8e-3 -8e-3c-0.097 0.277-0.312 0.539-0.675 0.742l-69.352 40.043c-1.102 0.637-3.024 0.555-4.297-0.18l-116.23-67.101c-0.527-0.301-0.839-0.668-0.976-1.035l-8e-3 7e-3z" fill="url(#linearGradient157)"/>
  <path transform="matrix(1.3333 0 0 1.3333 5344.1 0)" d="m55.449 497.58 119.11 68.773c1.305 0.75 3.278 0.833 4.403 0.18l71.078-41.039c1.133-0.652 0.992-1.793-0.313-2.543l-119.12-68.773c-1.304-0.75-3.277-0.836-4.402-0.184l-71.078 41.043c-1.133 0.652-0.988 1.793 0.316 2.543z" fill="url(#linearGradient162)"/>
  <g>
   <path transform="matrix(1.3333 0 0 1.3333 5344.1 0)" d="m55.449 496.9 119.11 68.766c1.305 0.75 3.278 0.832 4.403 0.18l71.078-41.039c0.367-0.211 0.594-0.481 0.691-0.766 0.18 0.535-0.039 1.082-0.691 1.457l-71.078 41.039c-1.129 0.653-3.102 0.57-4.403-0.18l-119.11-68.773c-0.879-0.512-1.215-1.187-1.004-1.777 0.125 0.386 0.457 0.769 1.004 1.093z" fill="#fff"/>
   <path transform="matrix(1.3333 0 0 1.3333 5344.1 0)" d="m210.49 551.48v-1.305c0-0.129-0.074-0.18-0.164-0.129l-4.605 2.664c-0.09 0.051-0.164 0.195-0.164 0.32v1.305c0 0.129 0.074 0.18 0.164 0.129l4.605-2.664c0.09-0.051 0.164-0.195 0.164-0.32z" fill="#2e4697"/>
   <path transform="matrix(1.3333 0 0 1.3333 5344.1 0)" d="m203.6 555.46v-1.305c0-0.125-0.078-0.179-0.167-0.125l-4.602 2.661c-0.094 0.054-0.168 0.195-0.168 0.324v1.304c0 0.125 0.074 0.18 0.168 0.125l4.602-2.66c0.089-0.062 0.167-0.203 0.167-0.324z" fill="#2e4697"/>
   <path transform="matrix(1.3333 0 0 1.3333 5344.1 0)" d="m209.97 534.82-98.985-57.148c-0.66-0.383-1.472-0.383-2.133 0l-35.25 20.39c-0.5 0.293-0.5 1.024 0 1.313l98.942 57.121c0.66 0.383 1.469 0.383 2.129 0l35.297-20.371c0.507-0.277 0.507-1.012 0-1.305z" fill="#aeafd9"/>
   <path transform="matrix(1.3333 0 0 1.3333 5344.1 0)" d="m209.97 536.14-0.356 0.203-98.629-56.946c-0.66-0.382-1.472-0.382-2.133 0l-34.89 20.188-0.352-0.203c-0.508-0.293-0.508-1.02 0-1.313l35.25-20.39c0.66-0.383 1.473-0.383 2.129 0l98.988 57.148c0.5 0.285 0.5 1.02-7e-3 1.313z" fill="#9298cc"/>
  </g>
  <g fill="#2c2661">
   <path transform="matrix(1.3333 0 0 1.3333 5344.1 0)" d="m110.02 480.64-3.825 2.207 91.176 52.64 4.524-1.804z"/>
   <path transform="matrix(1.3333 0 0 1.3333 5344.1 0)" d="m100.64 486.05-3.817 2.211 80.645 46.558 3.828-2.203z"/>
   <path transform="matrix(1.3333 0 0 1.3333 5344.1 0)" d="m94.539 489.57-3.816 2.211 94.949 54.821 3.824-2.207z"/>
   <path transform="matrix(1.3333 0 0 1.3333 5344.1 0)" d="m88.441 493.09-3.824 2.207 94.949 54.824 3.825-2.203z"/>
   <path transform="matrix(1.3333 0 0 1.3333 5344.1 0)" d="m82.336 496.62-3.824 2.203 94.949 54.828 3.824-2.207z"/>
   <path transform="matrix(1.3333 0 0 1.3333 5344.1 0)" d="m201.2 533.28-3.824 2.203 3.824 2.207 3.828-2.207z"/>
   <path transform="matrix(1.3333 0 0 1.3333 5344.1 0)" d="m176.52 529.85-3.691 2.289 18.988 10.964 3.828-2.21z"/>
  </g>
  <path transform="matrix(1.3333 0 0 1.3333 5344.1 0)" d="m174.74 509.22-26.695-15.414c-1.043-0.602-1.043-1.574 0-2.184l18.258-10.535c1.039-0.602 2.734-0.602 3.777 0l26.695 15.41c1.039 0.602 1.039 1.574 0 2.184l-18.257 10.539c-1.051 0.605-2.739 0.605-3.778 0z" fill="url(#linearGradient178)"/>
  <path transform="matrix(1.3333 0 0 1.3333 5344.1 0)" d="m196.77 497.4-26.696-15.415c-1.043-0.601-2.734-0.601-3.777 0l-18.258 10.54c-0.32 0.187-0.531 0.41-0.652 0.644-0.278-0.527-0.067-1.117 0.652-1.539l18.258-10.535c1.043-0.602 2.734-0.602 3.777 0l26.696 15.41c0.718 0.422 0.929 1.012 0.652 1.539-0.121-0.242-0.332-0.465-0.652-0.644z" fill="#9298cc"/>
  <g fill="#1579a0">
   <path transform="matrix(1.3333 0 0 1.3333 5344.1 0)" d="m54.625 494.74 15.051-89.332-1.207-0.511 1.824-1.043v7e-3c0.352-0.23 0.855-0.214 1.402 0.098l120.34 69.481c0.992 0.57 1.735 2.031 1.559 3.058l-15.18 90.047c-0.082 0.473-0.312 0.781-0.637 0.914l-1.777 1.027-0.308-1.664 0.105 0.032-119.61-69.063c-0.989-0.57-1.731-2.031-1.559-3.051z"/>
   <path transform="matrix(1.3333 0 0 1.3333 5344.1 0)" d="m191.36 475.88 1.981-0.879c0.226 0.512 0.332 1.043 0.254 1.496l-15.18 90.043c-0.082 0.473-0.312 0.781-0.637 0.914l-1.777 1.028-0.308-1.665 0.105 0.032-6.051-3.496z"/>
   <path transform="matrix(1.3333 0 0 1.3333 5344.1 0)" d="m54.293 498.88 120.34 69.48c0.929 0.539 1.722 0.223 1.89-0.738l15.18-90.043c0.172-1.019-0.578-2.484-1.562-3.058l-120.34-69.481c-0.93-0.543-1.727-0.227-1.891 0.734l-15.179 90.043c-0.165 1.028 0.585 2.493 1.566 3.063z"/>
  </g>
  <g>
   <path transform="matrix(1.3333 0 0 1.3333 5344.1 0)" d="m89.355 523.6-112.04 64.696-112.05-64.696 112.05-64.687z" fill="#bcbcdf"/>
   <path transform="matrix(1.3333 0 0 1.3333 5344.1 0)" d="m58.766 523.6-81.461 47.032-81.45-47.032 81.45-47.023z" fill="#626161"/>
   <path transform="matrix(1.3333 0 0 1.3333 5344.1 0)" d="m-22.695 476.58-81.45 47.023 2.762 1.598 78.688-45.433 78.699 45.433 2.762-1.598z" fill="#fff"/>
  </g>
  <path transform="matrix(1.3333 0 0 1.3333 5344.1 0)" d="m-22.688 588.3 112.04-64.696v36.676l-112.04 64.688z" fill="url(#linearGradient189)"/>
  <g>
   <path transform="matrix(1.3333 0 0 1.3333 5344.1 0)" d="m-22.688 588.3 112.04-64.696-1.82-1.05-110.22 63.644-110.23-63.644-1.82 1.05z" fill="#fff"/>
   <path transform="matrix(1.3333 0 0 1.3333 5344.1 0)" d="m-5.887 594.59 78.438-45.277v6.562l-78.438 45.285z" fill="#626161"/>
   <path transform="matrix(1.3333 0 0 1.3333 5344.1 0)" d="m30.797 519.43-3.563 2.058-3.554-2.058 3.554-2.055z" fill="#6dc4cb"/>
  </g>
  <g opacity=".1">
   <path transform="matrix(1.3333 0 0 1.3333 5344.1 0)" d="m37.914 523.54-3.562 2.055-3.555-2.055 3.555-2.047z" clip-path="url(#clipPath193)" fill="#6dc4cb"/>
  </g>
  <path transform="matrix(1.3333 0 0 1.3333 5344.1 0)" d="m30.766 527.67-3.555 2.047-3.563-2.055 3.563-2.047z" fill="#6dc4cb"/>
  <path transform="matrix(1.3333 0 0 1.3333 5344.1 0)" d="m89.355 460.12-112.04 64.688-112.05-64.688 112.05-64.695z" fill="url(#linearGradient201)" opacity=".5"/>
  <path transform="matrix(1.3333 0 0 1.3333 5344.1 0)" d="m58.766 460.12-81.461 47.028-81.45-47.028 81.45-47.023z" fill="#626161"/>
  <path transform="matrix(1.3333 0 0 1.3333 5344.1 0)" d="m-22.695 413.09-81.45 47.023 2.762 1.59 78.688-45.434 78.699 45.434 2.762-1.59z" fill="#fff"/>
  <path transform="matrix(1.3333 0 0 1.3333 5344.1 0)" d="m-22.688 524.8 112.04-64.688v36.668l-112.04 64.695z" fill="url(#linearGradient207)"/>
  <path transform="matrix(1.3333 0 0 1.3333 5344.1 0)" d="m-22.688 524.8 112.04-64.688-1.82-1.051-110.22 63.641-110.23-63.641-1.82 1.051z" fill="#fff"/>
  <path transform="matrix(1.3333 0 0 1.3333 5344.1 0)" d="m-5.887 531.1 78.438-45.286v6.563l-78.438 45.285z" fill="#626161"/>
  <g opacity=".5">
   <path transform="matrix(1.3333 0 0 1.3333 5344.1 0)" d="m30.797 455.94-3.563 2.055-3.554-2.055 3.554-2.054z" fill="url(#linearGradient215)"/>
   <path transform="matrix(1.3333 0 0 1.3333 5344.1 0)" d="m37.914 460.05-3.562 2.054-3.555-2.054 3.555-2.055z" clip-path="url(#clipPath222)" fill="url(#linearGradient222)" opacity=".1"/>
   <path transform="matrix(1.3333 0 0 1.3333 5344.1 0)" d="m30.766 464.18-3.555 2.054-3.563-2.054 3.563-2.055z" fill="url(#linearGradient229)"/>
  </g>
  <path transform="matrix(1.3333 0 0 1.3333 5344.1 0)" d="m97.953 721.86c-1.945 0-3.855-0.507-5.523-1.476l-63.664-36.758c-1-0.578-1.59-1.613-1.59-2.758 0-1.156 0.59-2.183 1.59-2.762l115.2-66.511c0.195-0.11 0.433-0.11 0.629 0l0.531 0.308 68.348 39.457c1 0.579 1.589 1.606 1.589 2.762s-0.589 2.184-1.589 2.758l-109.99 63.504c-1.679 0.969-3.585 1.476-5.527 1.476zm46.32-109-114.89 66.328c-0.61 0.356-0.969 0.977-0.969 1.676 0 0.695 0.359 1.324 0.969 1.672l63.668 36.758c2.961 1.707 6.824 1.707 9.785 0l110-63.504c0.602-0.344 0.969-0.977 0.969-1.672 0-0.699-0.36-1.328-0.969-1.672z" fill="#6dc4cb"/>
  <path transform="matrix(1.3333 0 0 1.3333 5344.1 0)" d="m144.41 585.9-15.324-90.918 1.23-0.515-1.851-1.067v8e-3c-0.36-0.238-0.871-0.226-1.426 0.098l-122.46 70.711c-1.008 0.578-1.773 2.07-1.59 3.113l15.442 91.633c0.082 0.48 0.312 0.797 0.644 0.93l1.817 1.05 0.304-1.695-0.105 0.031 121.73-70.277c1.012-0.574 1.778-2.063 1.598-3.102z" fill="url(#linearGradient236)"/>
  <path transform="matrix(1.3333 0 0 1.3333 5344.1 0)" d="m5.266 566.71-2.008-0.891c-0.227 0.516-0.34 1.055-0.266 1.516l15.446 91.633c0.082 0.48 0.312 0.797 0.644 0.93l1.816 1.05 0.305-1.695-0.105 0.031 6.16-3.554z" fill="url(#linearGradient243)"/>
  <path transform="matrix(1.3333 0 0 1.3333 5344.1 0)" d="m144.74 590.11-122.46 70.7c-0.945 0.55-1.754 0.234-1.922-0.75l-15.441-91.633c-0.18-1.043 0.586-2.528 1.59-3.114l122.47-70.71c0.945-0.547 1.754-0.231 1.918 0.75l15.445 91.636c0.18 1.059-0.586 2.543-1.594 3.121z" fill="#1579a0"/>
  <g opacity=".51">
   <path transform="matrix(1.3333 0 0 1.3333 5344.1 0)" d="m141.93 586.82-14.563-86.347-118.04 68.152 14.633 86.301z" clip-path="url(#clipPath245)" fill="#464193"/>
  </g>
  <path transform="matrix(1.3333 0 0 1.3333 5344.1 0)" d="m221.73 633.5-6.679 3.488-67.024-38.695c-1.125-0.644-3.082-0.562-4.371 0.18l-115.59 66.738c-1.109-0.617-6.148-3.047-6.148-3.047l2.445 6.375 4e-3 -8e-3c0.098 0.285 0.317 0.547 0.684 0.758l70.582 40.746c1.125 0.649 3.082 0.571 4.375-0.179l118.28-68.286c0.531-0.308 0.856-0.675 0.988-1.058l8e-3 8e-3z" fill="url(#linearGradient252)"/>
  <path transform="matrix(1.3333 0 0 1.3333 5344.1 0)" d="m220.7 634.59-121.22 69.992c-1.325 0.762-3.336 0.848-4.485 0.188l-72.336-41.77c-1.148-0.66-1.004-1.82 0.321-2.586l121.22-69.992c1.328-0.766 3.34-0.848 4.485-0.188l72.34 41.77c1.148 0.668 1.003 1.82-0.325 2.586z" fill="url(#linearGradient257)"/>
  <g>
   <path transform="matrix(1.3333 0 0 1.3333 5344.1 0)" d="m220.7 633.9-121.22 69.988c-1.325 0.765-3.336 0.847-4.485 0.187l-72.336-41.765c-0.375-0.219-0.601-0.489-0.707-0.782-0.179 0.547 0.039 1.094 0.707 1.477l72.336 41.77c1.149 0.66 3.16 0.574 4.485-0.188l121.22-69.992c0.895-0.516 1.239-1.207 1.028-1.809-0.133 0.399-0.473 0.789-1.028 1.114z" fill="#fff"/>
   <path transform="matrix(1.3333 0 0 1.3333 5344.1 0)" d="m62.91 689.44v-1.328c0-0.125 0.078-0.187 0.176-0.125l4.687 2.707c0.094 0.051 0.172 0.203 0.172 0.328v1.328c0 0.129-0.078 0.188-0.172 0.129l-4.687-2.707c-0.098-0.062-0.176-0.211-0.176-0.332z" fill="#2e4697"/>
   <path transform="matrix(1.3333 0 0 1.3333 5344.1 0)" d="m69.926 693.49v-1.328c0-0.129 0.074-0.187 0.172-0.129l4.687 2.711c0.098 0.051 0.172 0.199 0.172 0.328v1.328c0 0.129-0.074 0.188-0.172 0.129l-4.687-2.711c-0.098-0.05-0.172-0.199-0.172-0.328z" fill="#2e4697"/>
   <path transform="matrix(1.3333 0 0 1.3333 5344.1 0)" d="m41.516 659.09 100.73-58.164c0.676-0.391 1.5-0.391 2.168 0l35.871 20.754c0.52 0.3 0.52 1.043 0 1.343l-100.69 58.129c-0.668 0.391-1.5 0.391-2.168 0l-35.914-20.726c-0.52-0.293-0.52-1.035 0-1.336z" fill="#aeafd9"/>
   <path transform="matrix(1.3333 0 0 1.3333 5344.1 0)" d="m41.516 660.43 0.359 0.207 100.37-57.953c0.676-0.387 1.5-0.387 2.168 0l35.512 20.543 0.359-0.207c0.52-0.301 0.52-1.043 0-1.344l-35.871-20.754c-0.676-0.391-1.5-0.391-2.168 0l-100.73 58.172c-0.52 0.301-0.52 1.043 0 1.336z" fill="#9298cc"/>
  </g>
  <g fill="#2c2661">
   <path transform="matrix(1.3333 0 0 1.3333 5344.1 0)" d="m143.24 603.94 3.883 2.243-87.504 50.519-3.883-2.242z"/>
   <path transform="matrix(1.3333 0 0 1.3333 5344.1 0)" d="m152.77 609.45 3.89 2.242-82.07 47.395-3.895-2.25z"/>
   <path transform="matrix(1.3333 0 0 1.3333 5344.1 0)" d="m158.99 613.04 3.891 2.25-96.637 55.793-3.894-2.25z"/>
   <path transform="matrix(1.3333 0 0 1.3333 5344.1 0)" d="m165.2 616.62 3.895 2.25-96.629 55.793-3.895-2.25z"/>
   <path transform="matrix(1.3333 0 0 1.3333 5344.1 0)" d="m171.41 620.22 3.887 2.242-96.633 55.789-3.891-2.242z"/>
   <path transform="matrix(1.3333 0 0 1.3333 5344.1 0)" d="m50.445 657.52 3.895 2.242-3.895 2.25-3.89-2.25z"/>
   <path transform="matrix(1.3333 0 0 1.3333 5344.1 0)" d="m64.172 660.61 3.883 2.243-8.067 4.664-3.894-2.25z"/>
  </g>
  <path transform="matrix(1.3333 0 0 1.3333 5344.1 0)" d="m146.12 673.16 27.164-15.684c1.066-0.613 1.066-1.605 0-2.218l-18.578-10.727c-1.063-0.613-2.781-0.613-3.848 0l-27.164 15.684c-1.066 0.613-1.066 1.605 0 2.219l18.578 10.726c1.063 0.613 2.789 0.613 3.848 0z" fill="url(#linearGradient273)"/>
  <path transform="matrix(1.3333 0 0 1.3333 5344.1 0)" d="m123.71 661.13 27.164-15.684c1.067-0.613 2.781-0.613 3.848 0l18.578 10.727c0.328 0.187 0.539 0.418 0.668 0.652 0.277-0.531 0.066-1.14-0.668-1.566l-18.578-10.727c-1.067-0.613-2.781-0.613-3.848 0l-27.164 15.684c-0.734 0.418-0.945 1.027-0.668 1.566 0.129-0.238 0.344-0.465 0.668-0.652z" fill="#9298cc"/>
  <g opacity=".11">
   <g clip-path="url(#clipPath292)">
    <path transform="matrix(1.3333 0 0 1.3333 5344.1 0)" d="m144.32 590.28-121.22 69.989c-1.328 0.765-3.336 0.847-4.485 0.187l-72.336-41.766c-1.148-0.66-1.007-1.824 0.321-2.589l121.22-69.989c1.329-0.765 3.336-0.847 4.485-0.187l72.34 41.765c1.144 0.668 1.004 1.825-0.325 2.59z" clip-path="url(#clipPath278)" fill="url(#linearGradient278)" opacity="1"/>
    <path transform="matrix(1.3333 0 0 1.3333 5344.1 0)" d="m22.734 602.83 27.164-15.683c1.067-0.614 1.067-1.606 0-2.219l-18.578-10.727c-1.062-0.613-2.781-0.613-3.847 0l-27.164 15.684c-1.067 0.613-1.067 1.605 0 2.219l18.578 10.726c1.066 0.613 2.781 0.613 3.847 0z" fill="url(#linearGradient283)"/>
    <g>
     <path transform="matrix(1.3333 0 0 1.3333 5344.1 0)" d="m0.316 590.8 27.164-15.68c1.067-0.617 2.786-0.617 3.848 0l18.578 10.723c0.332 0.187 0.539 0.414 0.668 0.652 0.278-0.531 0.067-1.14-0.668-1.566l-18.578-10.727c-1.062-0.613-2.781-0.613-3.848 0l-27.164 15.684c-0.734 0.422-0.945 1.027-0.668 1.566 0.129-0.238 0.34-0.465 0.668-0.652z" clip-path="url(#clipPath283)" fill="#9298cc"/>
     <path transform="matrix(1.3333 0 0 1.3333 5344.1 0)" d="m-11.625 627.34 100.73-58.164c0.676-0.391 1.5-0.391 2.168 0l35.871 20.754c0.52 0.297 0.52 1.039 0 1.34l-100.69 58.132c-0.668 0.391-1.5 0.391-2.168 0l-35.918-20.73c-0.516-0.293-0.516-1.035 0-1.332z" clip-path="url(#clipPath284)" fill="#aeafd9"/>
     <path transform="matrix(1.3333 0 0 1.3333 5344.1 0)" d="m-11.625 628.68 0.363 0.211 100.37-57.953c0.676-0.391 1.5-0.391 2.168 0l35.512 20.542 0.359-0.21c0.52-0.301 0.52-1.043 0-1.34l-35.871-20.754c-0.675-0.391-1.5-0.391-2.168 0l-100.73 58.164c-0.516 0.297-0.516 1.039 0 1.34z" clip-path="url(#clipPath285)" fill="#9298cc"/>
    </g>
    <g fill="#2c2661">
     <path transform="matrix(1.3333 0 0 1.3333 5344.1 0)" d="m121.24 590.53-3.472-2.007-87.758 50.668 3.472 2.003z" clip-path="url(#clipPath286)"/>
     <path transform="matrix(1.3333 0 0 1.3333 5344.1 0)" d="m111.99 585.19-3.472-2.008-83.415 48.156 3.481 2.008z" clip-path="url(#clipPath287)"/>
     <path transform="matrix(1.3333 0 0 1.3333 5344.1 0)" d="m29.238 643.64-3.48-2.004-5.422 3.129 3.469 2.007z" clip-path="url(#clipPath288)"/>
     <path transform="matrix(1.3333 0 0 1.3333 5344.1 0)" d="m106.2 581.84-3.48-2.012-97.426 56.258 3.473 2.004z" clip-path="url(#clipPath289)"/>
     <path transform="matrix(1.3333 0 0 1.3333 5344.1 0)" d="m100.4 578.5-3.472-2.008-97.43 56.258 3.48 2z" clip-path="url(#clipPath290)"/>
     <path transform="matrix(1.3333 0 0 1.3333 5344.1 0)" d="m94.613 575.15-3.48-2.007-97.422 56.257 3.469 2z" clip-path="url(#clipPath291)"/>
    </g>
   </g>
  </g>
  <path transform="matrix(1.3333 0 0 1.3333 5344.1 0)" d="m218.7 620.76-67.402-38.918 67.402-38.918 67.403 38.918zm-65.492-38.918 65.5 37.812 65.488-37.812-65.496-37.817z" fill="#7d81bd"/>
  <path transform="matrix(1.3333 0 0 1.3333 5344.1 0)" d="m156.4 554.8v12.57l62.297 35.969 62.301-35.969v-12.57l-62.301 34.375z" fill="url(#linearGradient308)"/>
  <path transform="matrix(1.3333 0 0 1.3333 5344.1 0)" d="m281 554.8-62.301 35.965-62.297-35.965 62.297-35.969z" fill="url(#linearGradient313)"/>
  <g opacity=".5">
   <path transform="matrix(1.3333 0 0 1.3333 5344.1 0)" d="m218.7 590.77 62.301-35.965-0.898-0.516-61.403 35.445-61.402-35.445-0.895 0.516z" clip-path="url(#clipPath314)" fill="#fff"/>
  </g>
  <path transform="matrix(1.3333 0 0 1.3333 5344.1 0)" d="m257.21 554.8-38.512 22.23-38.515-22.23 38.515-22.239z" fill="#202045"/>
  <path transform="matrix(1.3333 0 0 1.3333 5344.1 0)" d="m257.21 554.8-38.512 22.238-38.515-22.238 38.515-22.239z" fill="url(#linearGradient322)" opacity=".5"/>
  <path transform="matrix(1.3333 0 0 1.3333 5344.1 0)" d="m218.7 532.57v-31.109l38.512 22.238v31.11z" fill="url(#linearGradient329)" opacity=".5"/>
  <path transform="matrix(1.3333 0 0 1.3333 5344.1 0)" d="m218.7 501.46v31.109l-38.515 22.239v-31.11z" fill="url(#linearGradient336)" opacity=".5"/>
  <path transform="matrix(1.3333 0 0 1.3333 5344.1 0)" d="m257.21 523.7-38.512 22.239-38.515-22.239 38.515-22.238z" fill="url(#linearGradient343)" opacity=".5"/>
  <path transform="matrix(1.3333 0 0 1.3333 5344.1 0)" d="m257.21 523.7-38.512 22.239v31.101l38.512-22.23z" fill="url(#linearGradient350)" opacity=".5"/>
  <path transform="matrix(1.3333 0 0 1.3333 5344.1 0)" d="m218.7 545.93-38.515-22.239v31.11l38.515 22.23z" fill="url(#linearGradient357)" opacity=".5"/>
  <path transform="matrix(1.3333 0 0 1.3333 5344.1 0)" d="m87.684 586.43c-0.598 0.953-0.622 2.105-0.172 3.058-1.637 1.922-3.66 3.496-5.957 4.621-9.2 4.516-20.36 0.703-24.875-8.496-4.516-9.203-0.707-20.363 8.496-24.879 2.297-1.125 4.777-1.761 7.297-1.883 0.472 0.938 1.402 1.629 2.519 1.735 1.742 0.172 3.293-1.106 3.461-2.844 0.172-1.742-1.105-3.293-2.844-3.457-1.281-0.129-2.461 0.531-3.058 1.582-3 0.113-5.957 0.856-8.688 2.195-10.672 5.243-15.09 18.188-9.855 28.864 5.234 10.672 18.187 15.09 28.859 9.851 2.731-1.34 5.125-3.222 7.051-5.527 1.199 0.168 2.437-0.359 3.129-1.445 0.93-1.477 0.48-3.438-0.996-4.368-1.489-0.937-3.446-0.484-4.367 0.993zm-14.797-29.227c0.051-0.519 0.261-0.984 0.578-1.344 0.496-0.578 1.25-0.906 2.07-0.832 1.328 0.125 2.301 1.321 2.176 2.649-0.129 1.324-1.313 2.3-2.649 2.172-0.726-0.067-1.351-0.457-1.742-1.02-0.32-0.457-0.492-1.027-0.433-1.625zm19.523 32.195c-0.437 0.692-1.164 1.09-1.922 1.125-0.48 0.032-0.972-0.089-1.418-0.367-0.508-0.32-0.859-0.801-1.027-1.336-0.203-0.652-0.125-1.379 0.262-2 0.715-1.133 2.207-1.472 3.34-0.765 1.14 0.718 1.476 2.218 0.765 3.343z" fill="#fff"/>
  <path transform="matrix(1.3333 0 0 1.3333 5344.1 0)" d="m68.98 567.64c-5.32 2.609-7.507 9.031-4.898 14.347 2.609 5.321 9.031 7.508 14.348 4.899 5.316-2.61 7.508-9.031 4.898-14.348-2.613-5.316-9.039-7.508-14.348-4.898zm7.813 15.929c-3.488 1.711-7.695 0.274-9.402-3.207-1.711-3.48-0.274-7.695 3.207-9.406 3.488-1.711 7.695-0.269 9.406 3.211 1.719 3.488 0.277 7.695-3.211 9.402z" fill="#fff"/>
  <path transform="matrix(1.3333 0 0 1.3333 5344.1 0)" d="m1.465 422.27-31.149 35.789-31.148-35.789-31.145-35.789h1.911v-120.86h124.42v122.18h-2.895z" fill="url(#linearGradient361)" opacity=".45"/>
 </g>
</svg>
